<?xml version="1.0" encoding="utf-8"?>
<!-- Generator: Adobe Illustrator 26.0.2, SVG Export Plug-In . SVG Version: 6.00 Build 0)  -->
<svg version="1.1" id="Layer_1" xmlns="http://www.w3.org/2000/svg" xmlns:xlink="http://www.w3.org/1999/xlink" x="0px" y="0px"
	 viewBox="0 0 30 30" style="enable-background:new 0 0 30 30;" xml:space="preserve">
<style type="text/css">
	.st0{fill-rule:evenodd;clip-rule:evenodd;fill:#222D44;}
	.st1{fill-rule:evenodd;clip-rule:evenodd;fill:#FFFFFF;}
</style>
<g>
	<path class="st0" d="M3.3,30h23.3c1.8,0,3.3-1.5,3.3-3.3V3.3C30,1.5,28.5,0,26.7,0H3.3C1.5,0,0,1.5,0,3.3v23.3
		C0,28.5,1.5,30,3.3,30z"/>
	<path class="st1" d="M15,5C9.5,5,5,9.5,5,15c0,4.4,2.9,8.2,6.8,9.5c0.5,0.1,0.7-0.2,0.7-0.5c0-0.2,0-0.9,0-1.7
		C9.7,23,9.1,21,9.1,21C8.7,19.9,8,19.6,8,19.6C7.1,18.9,8.1,19,8.1,19c1,0.1,1.5,1,1.5,1c0.9,1.5,2.3,1.1,2.9,0.8
		c0.1-0.6,0.3-1.1,0.6-1.3c-2.2-0.3-4.6-1.1-4.6-5c0-1.1,0.4-2,1-2.7c-0.1-0.3-0.4-1.3,0.1-2.7c0,0,0.8-0.3,2.8,1
		c0.8-0.2,1.7-0.3,2.5-0.3c0.8,0,1.7,0.1,2.5,0.3c1.9-1.3,2.7-1,2.7-1c0.5,1.4,0.2,2.4,0.1,2.7c0.6,0.7,1,1.6,1,2.7
		c0,3.9-2.3,4.7-4.6,5c0.4,0.3,0.7,0.9,0.7,1.9c0,1.3,0,2.4,0,2.8c0,0.3,0.2,0.6,0.7,0.5c4-1.3,6.8-5.1,6.8-9.5C25,9.5,20.5,5,15,5"
		/>
</g>
</svg>
