<?xml version="1.0" encoding="utf-8"?>
<!-- Generator: Adobe Illustrator 26.0.2, SVG Export Plug-In . SVG Version: 6.00 Build 0)  -->
<svg version="1.1" id="Layer_1" xmlns:serif="http://www.serif.com/"
	 xmlns="http://www.w3.org/2000/svg" xmlns:xlink="http://www.w3.org/1999/xlink" x="0px" y="0px" viewBox="0 0 30 30"
	 style="enable-background:new 0 0 30 30;" xml:space="preserve">
<style type="text/css">
	.st0{fill-rule:evenodd;clip-rule:evenodd;fill:#222D44;}
	.st1{fill-rule:evenodd;clip-rule:evenodd;fill:#FFFFFF;}
	.st2{fill:#FFFFFF;}
</style>
<g id="g5891">
	<path id="background" class="st0" d="M30,3.8C30,1.7,28.3,0,26.2,0H3.8C1.7,0,0,1.7,0,3.8v22.5C0,28.3,1.7,30,3.8,30h22.5
		c2.1,0,3.8-1.7,3.8-3.8V3.8z"/>
	<g id="shapes">
		<rect id="rect11" x="3.6" y="10.5" class="st1" width="5" height="15.1"/>
		<path id="path13-0" class="st2" d="M6.1,3.2c-1.7,0-2.8,1.1-2.8,2.6c0,1.5,1.1,2.6,2.8,2.6h0c1.8,0,2.8-1.2,2.8-2.6
			C8.9,4.3,7.8,3.2,6.1,3.2z"/>
		<path id="path15" class="st2" d="M20.9,10.1c-2.7,0-3.9,1.5-4.5,2.5v-2.1h-5c0.1,1.4,0,15.1,0,15.1h5v-8.4c0-0.5,0-0.9,0.2-1.2
			c0.4-0.9,1.2-1.8,2.6-1.8c1.8,0,2.5,1.4,2.5,3.4v8.1h5v-8.7C26.7,12.3,24.2,10.1,20.9,10.1z"/>
	</g>
</g>
</svg>
