<?xml version="1.0" encoding="utf-8"?>
<!-- Generator: Adobe Illustrator 26.0.2, SVG Export Plug-In . SVG Version: 6.00 Build 0)  -->
<svg version="1.1" id="Layer_1" xmlns:serif="http://www.serif.com/"
	 xmlns="http://www.w3.org/2000/svg" xmlns:xlink="http://www.w3.org/1999/xlink" x="0px" y="0px" viewBox="0 0 30 30"
	 style="enable-background:new 0 0 30 30;" xml:space="preserve">
<style type="text/css">
	.st0{fill-rule:evenodd;clip-rule:evenodd;fill:#222D44;}
	.st1{fill:#FFFFFF;}
</style>
<g>
	<circle id="Dark_Blue" class="st0" cx="15" cy="15" r="15"/>
	<path id="Logo__x2014__FIXED" class="st1" d="M12.3,22.9c6.7,0,10.3-5.5,10.3-10.3c0-0.2,0-0.3,0-0.5c0.7-0.5,1.3-1.1,1.8-1.9
		c-0.6,0.3-1.3,0.5-2.1,0.6c0.8-0.4,1.3-1.2,1.6-2c-0.7,0.4-1.5,0.7-2.3,0.9C20.9,9,20,8.6,18.9,8.6c-2,0-3.6,1.6-3.6,3.6
		c0,0.3,0,0.6,0.1,0.8c-3-0.2-5.7-1.6-7.5-3.8c-0.3,0.5-0.5,1.2-0.5,1.8c0,1.3,0.6,2.4,1.6,3c-0.6,0-1.1-0.2-1.6-0.4v0
		c0,1.8,1.2,3.2,2.9,3.5c-0.3,0.1-0.6,0.1-1,0.1c-0.2,0-0.5,0-0.7-0.1c0.5,1.4,1.8,2.5,3.4,2.5c-1.2,1-2.8,1.5-4.5,1.5
		c-0.3,0-0.6,0-0.9-0.1C8.3,22.3,10.2,22.9,12.3,22.9"/>
</g>
</svg>
